<svg width="146" height="28" viewBox="0 0 146 28" fill="none" xmlns="http://www.w3.org/2000/svg">
<g id="sneakers 2" filter="url(#filter0_d_0_810)">
<path id="sneakers" fill-rule="evenodd" clip-rule="evenodd" d="M86.2973 10.9554L92.8261 20H87.5998L83.2425 13.9633L80.2223 16.9386V19.9543H76.0351V0H80.2223V11.2226L87.0577 4.46748H92.8847L86.2973 10.9554ZM55.6033 14.5951C55.1726 17.9292 52.48 20 47.3858 20C42.0697 20 39.0497 17.3232 39.0497 12.1544C39.0497 7.0812 42.1465 4.30913 47.3858 4.30913C49.5806 4.30913 51.3254 4.85922 52.637 5.77393V5.76839C55.6343 7.79242 55.903 11.0789 55.6627 13.2081H55.5082L55.5082 13.2092H43.1364C43.4244 15.2853 44.6647 16.3143 47.3858 16.3143C49.8985 16.3143 51.1427 15.615 51.5294 14.5951H55.6033ZM12.2168 20C16.9782 20 19.7358 19.2467 19.7358 15.3935C19.7358 11.9945 16.3557 11.2222 13.076 10.7123L12.5154 10.6271L12.237 10.5855L11.8879 10.5332C9.18668 10.1276 8.70681 9.74502 8.70681 9.06204C8.70681 8.5842 9.19774 7.73096 11.5495 7.73096C14.0047 7.73096 15.043 8.37823 15.043 9.60134V9.73506H19.3245V9.60217C19.3245 7.21298 17.9744 4.36394 11.5495 4.36394C5.59817 4.36394 4.34873 6.94831 4.34873 9.11603C4.34873 12.2131 7.11186 13.2017 11.5725 13.7914C11.7826 13.8188 12.0048 13.8454 12.2307 13.872C13.8997 14.0688 15.4032 14.2911 15.4032 15.4575C15.4032 16.4672 13.788 16.6787 12.1052 16.6787C9.30831 16.6787 8.32121 16.0865 8.32121 14.759V14.6253H4.0021L4.00044 14.9265L4 15.2433C4.00845 16.0334 4.11799 17.1559 5.05693 18.105C6.30277 19.3619 8.71152 20 12.2168 20ZM25.4271 20V12.5096C25.4271 10.4061 25.9736 8.08726 29.6033 8.08726C33.4137 8.08726 33.3856 10.7183 33.3716 12.0247L33.3706 12.1287L33.3701 20H37.551V12.2322C37.5501 9.96844 37.3754 4.46555 30.819 4.46555C28.0412 4.46555 26.627 5.37748 25.6244 6.74594H25.4271V4.46748H21.2205V20H25.4271ZM51.4846 10.4261H43.2972C43.7826 8.85164 45.0605 7.99479 47.3858 7.99479C50.3803 7.99479 51.1407 9.26248 51.4846 10.4261ZM74.499 4.45724V20H70.2905V17.8312H70.1589C69.1088 19.1825 67.3391 20 64.4251 20C57.9161 20 57.1831 14.3213 57.1831 12.2286L57.1839 12.0917C57.2125 9.74991 58.0044 4.45724 64.4369 4.45724C67.3054 4.45724 69.0612 5.36281 70.1141 6.73957L70.2905 6.73957V4.45724H74.499ZM65.6455 16.3766C61.6492 16.3766 61.1984 13.3454 61.1984 12.2286C61.1984 11.0194 61.6235 8.08062 65.6527 8.08062C69.2843 8.08062 70.0273 10.1249 70.0273 12.2286C70.0273 14.5796 69.2851 16.3766 65.6455 16.3766ZM102.726 20C107.82 20 110.512 17.9292 110.943 14.5951H106.869C106.482 15.615 105.238 16.3143 102.726 16.3143C100.005 16.3143 98.7642 15.2853 98.4762 13.2092H110.848V13.2081H111.003C111.243 11.0789 110.974 7.79242 107.977 5.76839V5.77393C106.665 4.85922 104.92 4.30913 102.726 4.30913C97.4863 4.30913 94.3896 7.0812 94.3896 12.1544C94.3896 17.3232 97.4095 20 102.726 20ZM98.6371 10.4261H106.824C106.481 9.26248 105.72 7.99479 102.726 7.99479C100.4 7.99479 99.1225 8.85164 98.6371 10.4261ZM116.76 20V13.0306C116.76 10.9269 117.691 8.48814 120.81 8.48814C122.14 8.48814 123.203 8.72429 123.595 8.8342L124.265 4.85839C124.188 4.84144 124.109 4.82367 124.028 4.80546L124.028 4.80542C123.345 4.65147 122.519 4.46555 121.508 4.46555C118.843 4.46555 117.886 5.2601 117.022 6.74788H116.76V4.46555H112.551V20H116.76ZM141.5 15.3935C141.5 19.2467 138.742 20 133.981 20C130.476 20 128.067 19.3619 126.821 18.105C125.882 17.1559 125.773 16.0334 125.764 15.2433L125.765 14.9265L125.766 14.6253H130.085V14.759C130.085 16.0865 131.073 16.6787 133.869 16.6787C135.552 16.6787 137.167 16.4672 137.167 15.4575C137.167 14.2911 135.664 14.0688 133.995 13.872C133.769 13.8454 133.547 13.8188 133.337 13.7914C128.876 13.2017 126.113 12.2131 126.113 9.11603C126.113 6.94831 127.362 4.36394 133.314 4.36394C139.739 4.36394 141.089 7.21298 141.089 9.60217V9.73506H136.807V9.60134C136.807 8.37823 135.769 7.73096 133.314 7.73096C130.962 7.73096 130.471 8.5842 130.471 9.06204C130.471 9.74502 130.951 10.1276 133.652 10.5332L134.001 10.5855L134.28 10.6271L134.84 10.7123C138.12 11.2222 141.5 11.9945 141.5 15.3935Z" fill="#1D2026"/>
</g>
<defs>
<filter id="filter0_d_0_810" x="0" y="0" width="145.5" height="28" filterUnits="userSpaceOnUse" color-interpolation-filters="sRGB">
<feFlood flood-opacity="0" result="BackgroundImageFix"/>
<feColorMatrix in="SourceAlpha" type="matrix" values="0 0 0 0 0 0 0 0 0 0 0 0 0 0 0 0 0 0 127 0" result="hardAlpha"/>
<feOffset dy="4"/>
<feGaussianBlur stdDeviation="2"/>
<feComposite in2="hardAlpha" operator="out"/>
<feColorMatrix type="matrix" values="0 0 0 0 0 0 0 0 0 0 0 0 0 0 0 0 0 0 0.25 0"/>
<feBlend mode="normal" in2="BackgroundImageFix" result="effect1_dropShadow_0_810"/>
<feBlend mode="normal" in="SourceGraphic" in2="effect1_dropShadow_0_810" result="shape"/>
</filter>
</defs>
</svg>
